<svg xmlns="http://www.w3.org/2000/svg" width="244" height="206" viewBox="0 0 244 206">
<g>
<path d="M 0.00 0.00 L 244.00 0.00 L 244.00 206.00 L 179.81 206.00 L 180.45 196.25 C181.93,173.46 185.21,170.30 208.42,169.27 C230.83,168.28 239.62,171.70 242.53,182.54 C243.67,186.77 243.87,173.74 243.93,93.75 L 244.00 0.00 L 138.50 0.09 L 143.50 4.63 C155.10,15.17 172.62,25.17 186.50,29.19 L 194.50 31.50 L 193.85 43.00 C193.49,49.33 192.51,57.45 191.66,61.06 C184.87,89.91 168.39,111.80 144.38,123.83 L 138.27 126.89 L 130.51 122.48 C126.25,120.05 120.30,116.16 117.29,113.84 C111.47,109.34 100.99,98.17 101.04,96.50 C101.05,95.95 101.96,94.43 103.04,93.13 L 105.02 90.75 L 107.24 93.63 C114.72,103.28 125.04,112.01 134.83,116.94 L 139.17 119.13 L 146.16 114.97 C159.86,106.84 171.59,93.66 178.54,78.62 C185.38,63.81 189.59,37.86 185.39,36.38 C168.81,30.54 155.95,23.67 144.84,14.72 L 138.83 9.87 L 135.67 12.48 C124.69,21.49 109.47,30.22 97.00,34.64 L 90.50 36.94 L 90.60 45.22 C90.69,52.14 93.39,66.64 95.73,72.75 C96.06,73.61 95.09,74.00 92.63,74.00 C89.18,74.00 89.00,73.82 87.52,68.73 C84.75,59.17 83.00,47.95 83.00,39.64 L 83.00 31.46 L 89.51 29.76 C102.97,26.23 122.01,15.48 133.00,5.21 L 138.50 0.08 L 0.00 0.00 L 0.17 59.25 C0.26,91.84 0.63,113.78 0.98,108.00 C1.80,94.46 7.07,74.88 10.65,72.06 C12.86,70.32 22.55,68.22 23.59,69.25 C23.84,69.50 24.70,73.47 25.51,78.07 C26.61,84.29 27.82,87.66 30.24,91.21 C32.03,93.84 33.72,96.00 34.00,96.00 C34.28,96.00 35.94,93.86 37.69,91.25 C39.83,88.06 41.24,84.36 41.96,80.00 C43.19,72.61 43.46,70.02 44.78,69.29 C45.48,68.90 46.47,69.04 48.07,69.27 C48.41,69.32 48.78,69.38 49.18,69.43 C51.97,69.80 58.53,71.88 63.75,74.05 C72.91,77.87 73.62,78.00 84.66,78.00 C95.46,78.00 96.23,78.13 98.55,80.45 C101.79,83.70 101.79,88.30 98.55,91.55 C96.19,93.90 95.56,94.00 83.07,94.00 C71.36,94.00 69.49,93.75 64.40,91.50 C61.29,90.12 58.20,89.00 57.52,89.00 C56.04,89.00 55.22,96.97 54.36,119.50 C53.76,135.30 53.72,135.54 50.94,138.50 C49.39,140.15 47.65,142.77 47.06,144.32 C45.40,148.73 45.80,156.18 47.92,160.35 C49.26,162.98 49.49,164.23 48.67,164.47 C46.03,165.26 41.39,166.84 39.78,167.49 C38.19,168.14 38.03,166.90 37.78,152.45 C37.54,138.74 37.28,136.57 35.75,135.61 C34.48,134.81 33.52,134.81 32.25,135.61 C30.68,136.60 30.44,139.45 29.94,163.61 C29.64,178.40 29.30,190.59 29.19,190.71 C24.82,195.49 20.80,196.20 16.63,192.93 L 14.00 190.85 L 14.00 136.35 L 16.42 134.08 C17.75,132.83 19.34,130.60 19.95,129.12 C21.44,125.52 20.94,97.81 19.37,97.29 C17.72,96.74 17.18,99.95 16.39,114.96 C15.75,127.15 15.46,128.63 13.39,130.71 C10.24,133.85 6.47,133.63 2.92,130.08 L 0.00 127.15 ZM 97.00 206.00 L 32.70 206.00 L 33.32 195.75 C34.07,183.25 35.35,178.49 38.92,174.92 C42.71,171.13 47.63,169.88 61.09,169.28 C90.13,167.99 96.94,173.39 96.98,197.75 L 97.00 206.00 ZM 171.29 206.00 L 107.00 206.00 L 107.00 197.55 C107.00,181.26 109.93,174.74 118.78,171.32 C122.62,169.84 126.40,169.50 139.00,169.50 C165.47,169.50 169.13,172.52 170.62,195.54 L 171.29 206.00 ZM 213.80 128.80 C212.45,130.15 151.00,130.59 151.00,129.25 C151.00,128.84 152.96,127.26 155.36,125.75 L 159.71 123.00 L 208.00 123.00 L 208.00 15.00 L 170.03 15.00 L 164.77 11.75 L 159.50 8.50 L 185.98 8.23 C200.55,8.09 213.04,8.18 213.73,8.45 C215.53,9.14 215.59,127.01 213.80,128.80 ZM 139.00 103.61 C139.00,108.23 138.62,112.00 138.16,112.00 C137.69,112.00 134.43,110.14 130.91,107.86 C118.54,99.87 108.17,87.16 102.35,72.82 C99.35,65.44 96.05,51.14 96.02,45.39 C96.00,41.39 96.14,41.22 100.75,39.49 C109.54,36.19 122.44,29.26 130.23,23.67 C134.48,20.62 138.13,18.43 138.34,18.81 C138.56,19.19 138.68,21.71 138.61,24.42 L 138.50 29.33 L 133.00 30.45 C117.08,33.66 107.21,44.71 106.24,60.40 C105.89,66.05 106.26,68.73 108.03,73.50 C111.91,83.95 122.99,92.83 134.29,94.52 L 139.00 95.23 ZM 151.92 87.45 C137.67,95.21 120.27,89.41 112.90,74.45 C110.01,68.58 109.78,67.39 110.21,60.76 C110.74,52.56 112.56,48.25 117.86,42.67 C123.29,36.95 128.29,34.74 137.01,34.22 C144.99,33.74 149.27,34.90 155.74,39.30 C159.28,41.70 159.75,43.13 157.60,44.92 C156.50,45.83 155.20,45.45 151.54,43.13 C135.70,33.08 115.51,44.03 115.61,62.61 C115.65,70.22 119.04,76.55 125.41,80.94 C140.82,91.54 160.81,81.33 161.38,62.56 C161.50,58.78 162.11,56.46 163.31,55.26 C166.04,52.53 167.17,55.27 166.71,63.50 C166.12,74.21 160.99,82.51 151.92,87.45 ZM 182.98 170.53 C179.80,173.91 171.29,174.10 168.40,170.86 C166.12,168.29 159.38,165.05 156.25,165.02 C153.51,165.00 153.51,164.91 156.00,160.26 C157.10,158.21 158.00,154.84 158.00,152.76 L 158.00 149.00 L 193.00 149.00 L 193.00 152.54 C193.00,154.49 193.91,157.87 195.03,160.06 C196.56,163.05 196.74,164.13 195.78,164.41 C189.72,166.16 184.92,168.45 182.98,170.53 ZM 109.07 170.60 C104.92,174.09 98.60,173.86 94.16,170.07 C92.33,168.50 88.73,166.65 86.16,165.95 C82.53,164.97 80.98,164.58 80.72,163.77 C80.53,163.17 81.03,162.36 81.90,160.93 C81.93,160.87 81.97,160.81 82.01,160.75 C83.07,159.00 84.23,155.64 84.58,153.28 L 85.23 149.00 L 119.00 149.00 L 119.00 151.83 C119.00,153.39 120.08,156.79 121.40,159.40 C122.97,162.51 123.40,164.25 122.65,164.46 C117.33,165.94 111.44,168.60 109.07,170.60 ZM 69.00 43.00 C69.00,58.40 68.66,70.98 68.25,70.96 C67.84,70.94 66.26,70.25 64.75,69.43 L 62.00 67.94 L 62.00 39.55 C62.00,23.94 62.27,10.45 62.61,9.58 C63.14,8.19 66.57,8.00 90.81,8.00 L 118.41 8.00 L 112.95 11.47 L 107.50 14.95 L 88.25 14.97 L 69.00 15.00 ZM 217.33 164.64 C211.94,166.89 207.59,165.89 202.77,161.28 C194.78,153.63 198.02,140.96 208.71,138.08 C212.69,137.01 213.60,137.10 219.24,139.21 C226.06,141.76 228.43,153.95 223.30,160.06 C221.81,161.83 219.12,163.89 217.33,164.64 ZM 72.65 163.49 C64.01,169.15 51.00,161.95 51.00,151.51 C51.00,139.00 66.74,132.86 75.46,141.96 C81.10,147.84 79.65,158.91 72.65,163.49 ZM 41.98 62.21 C33.38,68.50 20.01,61.50 20.00,50.70 C20.00,42.33 25.55,37.00 34.27,37.00 C40.36,37.00 43.95,39.06 46.52,44.04 C49.50,49.80 47.39,58.24 41.98,62.21 ZM 146.47 163.02 C141.52,166.08 137.18,166.38 132.71,163.96 C127.64,161.22 125.01,156.70 125.00,150.74 C125.00,146.75 125.53,145.39 128.25,142.43 C136.15,133.84 150.49,137.41 152.57,148.50 C153.54,153.70 150.74,160.38 146.47,163.02 ZM 126.34 129.33 C125.97,129.70 112.04,130.00 95.39,130.00 C65.24,130.00 65.11,129.99 63.56,127.78 C62.32,126.01 62.00,122.53 62.00,110.78 C62.00,102.65 62.16,96.00 62.35,96.00 C62.54,96.00 64.11,96.49 65.82,97.09 L 68.94 98.17 L 69.22 110.34 L 69.50 122.50 L 94.00 123.00 C118.16,123.49 118.56,123.54 122.75,126.08 C125.09,127.50 126.70,128.96 126.34,129.33 ZM 169.78 42.83 C170.03,43.58 163.22,51.19 154.34,60.09 L 138.46 76.01 L 131.23 68.73 C123.92,61.38 122.62,58.75 125.68,57.57 C126.87,57.11 129.01,58.55 132.95,62.45 L 138.54 67.98 L 152.02 54.46 C165.18,41.26 168.54,39.06 169.78,42.83 ZM 36.09 89.43 C34.14,92.65 33.80,92.64 31.84,89.25 C30.56,87.03 30.42,85.24 31.10,80.00 C31.56,76.43 31.70,72.26 31.39,70.75 C30.89,68.22 31.09,68.00 33.97,68.00 C36.95,68.00 37.06,68.15 36.50,71.25 C36.18,73.04 36.31,77.28 36.78,80.68 C37.48,85.65 37.34,87.37 36.09,89.43 ZM 178.00 177.50 C178.00,179.00 174.92,179.59 173.67,178.33 C172.31,176.97 173.07,176.00 175.50,176.00 C177.06,176.00 178.00,176.57 178.00,177.50 ZM 104.36 177.50 C104.05,178.32 102.98,179.00 102.00,179.00 C101.02,179.00 99.95,178.32 99.64,177.50 C99.21,176.38 99.80,176.00 102.00,176.00 C104.20,176.00 104.79,176.38 104.36,177.50 Z" fill="rgb(5,6,6)"/>
<path d="M 0.25 75.66 C0.41,93.35 0.70,104.51 1.00,102.50 C1.27,100.71 2.13,96.87 3.19,92.62 C2.09,97.84 1.26,103.29 0.98,108.00 C0.69,112.74 0.39,98.82 0.25,75.66 ZM 11.29 71.65 C12.92,70.42 15.01,69.91 18.08,69.49 C18.17,69.48 18.25,69.47 18.34,69.45 C15.73,69.97 12.83,70.82 11.29,71.65 Z" fill="rgb(66,66,66)"/>
<path d="M 0.61 97.94 C0.68,99.01 0.76,99.54 0.83,99.45 C1.15,99.08 2.15,96.09 3.32,92.04 C3.28,92.24 3.23,92.43 3.19,92.62 C2.13,96.87 1.27,100.71 1.00,102.50 C0.87,103.39 0.73,101.68 0.61,97.94 ZM 17.07 69.64 C17.37,69.59 17.68,69.54 18.00,69.50 C18.01,69.50 18.03,69.50 18.04,69.49 C17.71,69.54 17.38,69.59 17.07,69.64 Z" fill="rgb(173,173,173)"/>
<path d="M -0.00 166.58 L -0.00 127.15 L 2.92 130.08 C6.47,133.63 10.24,133.85 13.39,130.71 C15.46,128.63 15.75,127.15 16.39,114.96 C17.18,99.95 17.72,96.74 19.37,97.29 C20.94,97.81 21.44,125.52 19.95,129.12 C19.34,130.60 17.75,132.83 16.42,134.08 L 14.00 136.35 L 14.00 163.60 L 14.00 190.85 L 16.63 192.93 C20.80,196.20 24.82,195.49 29.19,190.71 C29.30,190.59 29.64,178.40 29.94,163.61 C30.44,139.45 30.68,136.60 32.25,135.61 C33.52,134.81 34.48,134.81 35.75,135.61 C37.28,136.57 37.54,138.74 37.78,152.45 C38.03,166.90 38.19,168.14 39.78,167.49 C41.39,166.84 46.03,165.26 48.67,164.47 C49.49,164.23 49.26,162.98 47.92,160.35 C45.80,156.18 45.40,148.73 47.06,144.32 C47.65,142.77 49.39,140.15 50.94,138.50 C53.72,135.54 53.76,135.30 54.36,119.50 C55.22,96.97 56.04,89.00 57.52,89.00 C58.20,89.00 61.29,90.12 64.40,91.50 C69.49,93.75 71.36,94.00 83.07,94.00 C95.56,94.00 96.19,93.90 98.55,91.55 C101.79,88.30 101.79,83.70 98.55,80.45 C96.23,78.13 95.46,78.00 84.66,78.00 C73.62,78.00 72.91,77.87 63.75,74.05 C58.53,71.88 51.97,69.80 49.18,69.43 C43.42,68.66 43.99,67.82 41.96,80.00 C41.24,84.36 39.83,88.06 37.69,91.25 C35.94,93.86 34.28,96.00 34.00,96.00 C33.72,96.00 32.03,93.84 30.24,91.21 C27.82,87.66 26.61,84.29 25.51,78.07 C24.70,73.47 23.84,69.50 23.59,69.25 C23.33,69.00 20.82,69.11 18.00,69.50 C10.10,70.59 8.56,72.58 4.86,86.50 C3.10,93.10 1.29,98.93 0.83,99.45 C0.37,99.97 0.00,77.81 0.00,50.20 L 0.00 0.00 L 69.25 0.04 L 138.50 0.08 L 133.00 5.21 C122.01,15.48 102.97,26.23 89.51,29.76 L 83.00 31.46 L 83.00 39.64 C83.00,47.95 84.75,59.17 87.52,68.73 C89.00,73.82 89.18,74.00 92.63,74.00 C95.09,74.00 96.06,73.61 95.73,72.75 C93.39,66.64 90.69,52.14 90.60,45.22 L 90.50 36.94 L 97.00 34.64 C109.47,30.22 124.69,21.49 135.67,12.48 L 138.83 9.87 L 144.84 14.72 C155.95,23.67 168.81,30.54 185.39,36.38 C189.59,37.86 185.38,63.81 178.54,78.62 C171.59,93.66 159.86,106.84 146.16,114.97 L 139.17 119.13 L 134.83 116.94 C125.04,112.01 114.72,103.28 107.24,93.63 L 105.02 90.75 L 103.04 93.13 C101.96,94.43 101.05,95.95 101.04,96.50 C100.99,98.17 111.47,109.34 117.29,113.84 C120.30,116.16 126.25,120.05 130.51,122.48 L 138.27 126.89 L 144.38 123.83 C168.39,111.80 184.87,89.91 191.66,61.06 C192.51,57.45 193.49,49.33 193.85,43.00 L 194.50 31.50 L 186.50 29.19 C172.62,25.17 155.10,15.17 143.50,4.63 L 138.50 0.09 L 191.25 0.04 L 244.00 0.00 L 243.93 93.75 C243.87,173.74 243.67,186.77 242.53,182.54 C239.62,171.70 230.83,168.28 208.42,169.27 C185.21,170.30 181.93,173.46 180.45,196.25 L 179.81 206.00 L 175.55 206.00 L 171.29 206.00 L 170.62 195.54 C169.13,172.52 165.47,169.50 139.00,169.50 C126.40,169.50 122.62,169.84 118.78,171.32 C109.93,174.74 107.00,181.26 107.00,197.55 L 107.00 206.00 L 102.00 206.00 L 97.00 206.00 L 96.98 197.75 C96.94,173.39 90.13,167.99 61.09,169.28 C47.63,169.88 42.71,171.13 38.92,174.92 C35.35,178.49 34.07,183.25 33.32,195.75 L 32.70 206.00 L 16.35 206.00 L 0.00 206.00 L -0.00 166.58 ZM 104.36 177.50 C104.79,176.38 104.20,176.00 102.00,176.00 C99.80,176.00 99.21,176.38 99.64,177.50 C99.95,178.32 101.02,179.00 102.00,179.00 C102.98,179.00 104.05,178.32 104.36,177.50 ZM 178.00 177.50 C178.00,176.57 177.06,176.00 175.50,176.00 C173.07,176.00 172.31,176.97 173.67,178.33 C174.92,179.59 178.00,179.00 178.00,177.50 ZM 109.07 170.60 C111.44,168.60 117.33,165.94 122.65,164.46 C123.40,164.25 122.97,162.51 121.40,159.40 C120.08,156.79 119.00,153.39 119.00,151.83 L 119.00 149.00 L 102.11 149.00 L 85.23 149.00 L 84.58 153.28 C84.23,155.64 83.07,159.00 82.01,160.75 C79.84,164.32 79.76,164.22 86.16,165.95 C88.73,166.65 92.33,168.50 94.16,170.07 C98.60,173.86 104.92,174.09 109.07,170.60 ZM 182.98 170.53 C184.92,168.45 189.72,166.16 195.78,164.41 C196.74,164.13 196.56,163.05 195.03,160.06 C193.91,157.87 193.00,154.49 193.00,152.54 L 193.00 149.00 L 175.50 149.00 L 158.00 149.00 L 158.00 152.76 C158.00,154.84 157.10,158.21 156.00,160.26 C153.51,164.91 153.51,165.00 156.25,165.02 C159.38,165.05 166.12,168.29 168.40,170.86 C171.29,174.10 179.80,173.91 182.98,170.53 ZM 72.65 163.49 C79.65,158.91 81.10,147.84 75.46,141.96 C66.74,132.86 51.00,139.00 51.00,151.51 C51.00,161.95 64.01,169.15 72.65,163.49 ZM 146.47 163.02 C150.74,160.38 153.54,153.70 152.57,148.50 C150.49,137.41 136.15,133.84 128.25,142.43 C125.53,145.39 125.00,146.75 125.00,150.74 C125.01,156.70 127.64,161.22 132.71,163.96 C137.18,166.38 141.52,166.08 146.47,163.02 ZM 217.33 164.64 C219.12,163.89 221.81,161.83 223.30,160.06 C228.43,153.95 226.06,141.76 219.24,139.21 C213.60,137.10 212.69,137.01 208.71,138.08 C198.02,140.96 194.78,153.63 202.77,161.28 C207.59,165.89 211.94,166.89 217.33,164.64 ZM 126.34 129.33 C126.70,128.96 125.09,127.50 122.75,126.08 C118.56,123.54 118.16,123.49 94.00,123.00 L 69.50 122.50 L 69.22 110.34 L 68.94 98.17 L 65.82 97.09 C64.11,96.49 62.54,96.00 62.35,96.00 C62.16,96.00 62.00,102.65 62.00,110.78 C62.00,122.53 62.32,126.01 63.56,127.78 C65.11,129.99 65.24,130.00 95.39,130.00 C112.04,130.00 125.97,129.70 126.34,129.33 ZM 213.80 128.80 C215.59,127.01 215.53,9.14 213.73,8.45 C213.04,8.18 200.55,8.09 185.98,8.23 L 159.50 8.50 L 164.77 11.75 L 170.03 15.00 L 189.02 15.00 L 208.00 15.00 L 208.00 69.00 L 208.00 123.00 L 183.85 123.00 L 159.71 123.00 L 155.36 125.75 C152.96,127.26 151.00,128.84 151.00,129.25 C151.00,130.59 212.45,130.15 213.80,128.80 ZM 139.00 103.61 L 139.00 95.23 L 134.29 94.52 C122.99,92.83 111.91,83.95 108.03,73.50 C106.26,68.73 105.89,66.05 106.24,60.40 C107.21,44.71 117.08,33.66 133.00,30.45 L 138.50 29.33 L 138.61 24.42 C138.68,21.71 138.56,19.19 138.34,18.81 C138.13,18.43 134.48,20.62 130.23,23.67 C122.44,29.26 109.54,36.19 100.75,39.49 C96.14,41.22 96.00,41.39 96.02,45.39 C96.05,51.14 99.35,65.44 102.35,72.82 C108.17,87.16 118.54,99.87 130.91,107.86 C134.43,110.14 137.69,112.00 138.16,112.00 C138.62,112.00 139.00,108.23 139.00,103.61 ZM 36.09 89.43 C37.34,87.37 37.48,85.65 36.78,80.68 C36.31,77.28 36.18,73.04 36.50,71.25 C37.06,68.15 36.95,68.00 33.97,68.00 C31.09,68.00 30.89,68.22 31.39,70.75 C31.70,72.26 31.56,76.43 31.10,80.00 C30.42,85.24 30.56,87.03 31.84,89.25 C33.80,92.64 34.14,92.65 36.09,89.43 ZM 151.92 87.45 C160.99,82.51 166.12,74.21 166.71,63.50 C167.17,55.27 166.04,52.53 163.31,55.26 C162.11,56.46 161.50,58.78 161.38,62.56 C160.81,81.33 140.82,91.54 125.41,80.94 C119.04,76.55 115.65,70.22 115.61,62.61 C115.51,44.03 135.70,33.08 151.54,43.13 C155.20,45.45 156.50,45.83 157.60,44.92 C159.75,43.13 159.28,41.70 155.74,39.30 C149.27,34.90 144.99,33.74 137.01,34.22 C128.29,34.74 123.29,36.95 117.86,42.67 C112.56,48.25 110.74,52.56 110.21,60.76 C109.78,67.39 110.01,68.58 112.90,74.45 C120.27,89.41 137.67,95.21 151.92,87.45 ZM 169.78 42.83 C168.54,39.06 165.18,41.26 152.02,54.46 L 138.54 67.98 L 132.95 62.45 C129.01,58.55 126.87,57.11 125.68,57.57 C122.62,58.75 123.92,61.38 131.23,68.73 L 138.46 76.01 L 154.34 60.09 C163.22,51.19 170.03,43.58 169.78,42.83 ZM 69.00 43.00 L 69.00 15.00 L 88.25 14.97 L 107.50 14.95 L 112.95 11.47 L 118.41 8.00 L 90.81 8.00 C66.57,8.00 63.14,8.19 62.61,9.58 C62.27,10.45 62.00,23.94 62.00,39.55 L 62.00 67.94 L 64.75 69.43 C66.26,70.25 67.84,70.94 68.25,70.96 C68.66,70.98 69.00,58.40 69.00,43.00 ZM 41.98 62.21 C47.39,58.24 49.50,49.80 46.52,44.04 C43.95,39.06 40.36,37.00 34.27,37.00 C25.55,37.00 20.00,42.33 20.00,50.70 C20.01,61.50 33.38,68.50 41.98,62.21 Z" fill="rgb(253,253,253)"/>
</g>
</svg>